<?xml version="1.0" encoding="utf-8"?>
<!-- Generator: Adobe Illustrator 27.2.0, SVG Export Plug-In . SVG Version: 6.00 Build 0)  -->
<svg version="1.1" id="Layer_1" xmlns="http://www.w3.org/2000/svg" xmlns:xlink="http://www.w3.org/1999/xlink" x="0px" y="0px"
	 viewBox="0 0 21 7" enable-background="new 0 0 21 7" xml:space="preserve">
<path fill="#231F20" d="M8.689,5.172c0.317,0,0.581-0.263,0.581-0.581S9.006,4.011,8.689,4.011c-0.317,0-0.581,0.263-0.581,0.581
	S8.372,5.172,8.689,5.172 M9.27,3.197h0.952v2.789H9.27V5.669C9.096,5.914,8.803,6.04,8.498,6.04c-0.688,0-1.359-0.551-1.359-1.455
	c0-0.904,0.67-1.461,1.359-1.461c0.281,0,0.599,0.126,0.772,0.371V3.197z"/>
<path fill="#231F20" d="M11.377,4.897c-0.874-0.239-0.862-0.736-0.862-0.94c0-0.419,0.515-0.832,1.137-0.832
	c0.587,0,1.227,0.239,1.221,0.964h-0.892c0-0.174-0.102-0.251-0.281-0.251c-0.12,0-0.233,0.048-0.233,0.156
	c0,0.072,0.036,0.138,0.21,0.18l0.497,0.138c0.718,0.192,0.778,0.664,0.778,0.844c0,0.617-0.67,0.886-1.263,0.886
	c-0.593,0-1.215-0.347-1.215-0.988h0.892c0,0.12,0.09,0.287,0.323,0.287c0.156,0,0.293-0.072,0.293-0.186
	c0-0.084-0.048-0.108-0.251-0.162L11.377,4.897z"/>
<path fill="#231F20" d="M15.873,5.352C15.597,5.765,15.178,6.04,14.64,6.04c-0.832,0-1.55-0.569-1.55-1.455
	c0-0.886,0.718-1.461,1.55-1.461c0.539,0,0.952,0.275,1.227,0.688L15.089,4.28c-0.102-0.168-0.281-0.275-0.491-0.275
	c-0.317,0-0.581,0.263-0.581,0.581s0.263,0.581,0.581,0.581c0.198,0,0.371-0.102,0.479-0.257L15.873,5.352z"/>
<path fill="#231F20" d="M17.419,5.172C17.737,5.172,18,4.909,18,4.591s-0.263-0.581-0.581-0.581c-0.317,0-0.581,0.263-0.581,0.581
	S17.102,5.172,17.419,5.172 M18,2.297h0.952v3.689h-0.898V5.585c-0.162,0.329-0.521,0.455-0.826,0.455
	c-0.688,0-1.359-0.551-1.359-1.454c0-0.904,0.67-1.461,1.359-1.461c0.335,0,0.593,0.132,0.772,0.329V2.297z"/>
<g>
	<rect x="4.283" y="4.263" fill="#EF4060" width="1.472" height="0.982"/>
	<rect x="4.283" y="2.791" fill="#BD1F40" width="1.472" height="1.472"/>
	<rect x="4.283" y="5.245" fill="#BD1F40" width="1.472" height="1.472"/>
	<rect x="2.648" y="2.791" fill="#EF4060" width="1.635" height="1.472"/>
	<rect x="2.648" y="5.245" fill="#EF4060" width="1.635" height="1.472"/>
	<path fill="#BD1F40" d="M2.157,4.754c0-0.271,0.22-0.491,0.491-0.491V2.791c-1.084,0-1.963,0.879-1.963,1.963
		s0.879,1.963,1.963,1.963V5.245C2.377,5.245,2.157,5.025,2.157,4.754z"/>
	<path fill="#005E47" d="M3.632,0.225c-2.123,0-2.123,0-2.123,0l4.246,2.123C5.755,2.347,5.755,0.225,3.632,0.225z"/>
	<path fill="#00A67E" d="M1.509,0.225c0,0,0,2.123,2.123,2.123c2.123,0,2.123,0,2.123,0L1.509,0.225z"/>
</g>
<g>
	<path fill="#231F20" d="M19.822,2.277c0.329,0,0.591,0.268,0.591,0.598s-0.262,0.596-0.591,0.596s-0.589-0.267-0.589-0.596
		S19.493,2.277,19.822,2.277z M19.822,3.366c0.272,0,0.486-0.219,0.486-0.491s-0.214-0.493-0.486-0.493s-0.486,0.221-0.486,0.493
		S19.55,3.366,19.822,3.366z M19.913,2.961c0.091-0.024,0.13-0.105,0.13-0.186c0-0.098-0.063-0.196-0.193-0.196H19.62v0.596h0.117
		V2.969h0.039l0.149,0.206h0.142L19.913,2.961z M19.851,2.694c0.049,0,0.078,0.039,0.078,0.081c0,0.041-0.029,0.079-0.081,0.079
		h-0.111v-0.16H19.851z"/>
</g>
</svg>
